<svg xmlns="http://www.w3.org/2000/svg" width="960" height="540" viewBox="0 0 960 540" role="img" aria-label="Business explainer template preview">
  <rect width="960" height="540" fill="#161616"/>
  <rect x="90" y="70" width="780" height="400" rx="18" fill="#242424" stroke="#555" stroke-width="3"/>
  <rect x="132" y="118" width="260" height="300" rx="12" fill="#101010"/>
  <rect x="160" y="146" width="204" height="22" rx="11" fill="#52b788"/>
  <rect x="160" y="196" width="150" height="14" rx="7" fill="#e8a24d"/>
  <rect x="160" y="232" width="190" height="10" rx="5" fill="#777"/>
  <rect x="160" y="256" width="164" height="10" rx="5" fill="#777"/>
  <rect x="160" y="308" width="190" height="48" rx="8" fill="#303030"/>
  <rect x="182" y="328" width="146" height="8" rx="4" fill="#dcdcdc"/>
  <rect x="468" y="126" width="320" height="64" rx="10" fill="#2f3b35"/>
  <rect x="492" y="148" width="222" height="10" rx="5" fill="#74d99f"/>
  <rect x="492" y="168" width="172" height="8" rx="4" fill="#a8a8a8"/>
  <rect x="468" y="224" width="320" height="64" rx="10" fill="#3b342b"/>
  <rect x="492" y="246" width="194" height="10" rx="5" fill="#ffd9a7"/>
  <rect x="492" y="266" width="238" height="8" rx="4" fill="#a8a8a8"/>
  <rect x="468" y="322" width="320" height="64" rx="10" fill="#2b333f"/>
  <rect x="492" y="344" width="210" height="10" rx="5" fill="#9ecbff"/>
  <rect x="492" y="364" width="156" height="8" rx="4" fill="#a8a8a8"/>
  <text x="132" y="450" fill="#f0f0f0" font-family="Inter, Arial, sans-serif" font-size="22" font-weight="800">KEY POINTS</text>
</svg>
