<svg xmlns="http://www.w3.org/2000/svg" width="960" height="540" viewBox="0 0 960 540" role="img" aria-label="Shorts growth template preview">
  <rect width="960" height="540" fill="#161616"/>
  <rect x="344" y="42" width="272" height="456" rx="22" fill="#242424" stroke="#555" stroke-width="4"/>
  <rect x="374" y="74" width="212" height="376" rx="14" fill="#111"/>
  <rect x="402" y="118" width="156" height="42" rx="8" fill="#52b788"/>
  <rect x="414" y="130" width="132" height="8" rx="4" fill="#effff5"/>
  <rect x="434" y="146" width="92" height="8" rx="4" fill="#effff5"/>
  <rect x="386" y="312" width="188" height="50" rx="10" fill="#f0f0f0"/>
  <rect x="410" y="328" width="140" height="8" rx="4" fill="#1a1a1a"/>
  <rect x="430" y="344" width="100" height="8" rx="4" fill="#1a1a1a"/>
  <rect x="408" y="386" width="144" height="32" rx="16" fill="#e8a24d"/>
  <path d="M474 222h12v46h-12zM452 244h56v12h-56z" fill="#52b788"/>
  <text x="48" y="98" fill="#74d99f" font-family="Inter, Arial, sans-serif" font-size="24" font-weight="800">HOOK</text>
  <text x="704" y="438" fill="#ffd9a7" font-family="Inter, Arial, sans-serif" font-size="24" font-weight="800">CTA</text>
</svg>
